<svg t="1772682575826" class="icon" viewBox="0 0 1024 1024" version="1.1" xmlns="http://www.w3.org/2000/svg" p-id="3530" width="200" height="200"><path d="M1006.3 332.3c-10.2 0-17 6.8-17 17v121.6c0 10.2 6.8 17 17 17s17-6.8 17-17V349.3c0.1-6.8-6.7-17-17-17zM38.1 474.3V352.7c0-10.2-6.8-17-17-17-13.6-3.4-20.5 6.8-20.5 17v121.6c0 10.2 6.8 17 17 17 10.3 0.1 20.5-6.8 20.5-17zM721.1 304.4c-61.4 0-109.1 47.7-109.1 109.1-3.4 61.4 47.7 109.1 109.1 109.1 61.4 0 109.1-47.7 109.1-109.1 0-61.3-47.8-109.1-109.1-109.1z m0 177.3c-40.9 0-71.6-34.1-71.6-71.6-3.4-37.5 30.7-71.6 71.6-71.6 40.9 0 71.6 34.1 71.6 71.6 0 40.9-34.1 71.6-71.6 71.6zM302.9 304.4c-61.4 0-109.1 47.7-109.1 109.1 0 61.4 51.1 109.1 109.1 109.1 61.4 0 109.1-47.7 109.1-109.1 0-61.3-47.7-109.1-109.1-109.1z m0 177.3c-40.9 0-71.6-34.1-71.6-71.6 0-37.5 34.1-71.6 71.6-71.6 40.9 0 71.6 34.1 71.6 71.6 0 40.9-34.1 71.6-71.6 71.6z" p-id="3531"></path><path d="M243.9 1024c-20.9 0-40-17.4-40-36.6V803.3c0-21.7 18.3-40 40-40H338v-41.6H122.2c-21.7 0-40-18.3-40-40V145.3c0-21.7 18.3-40 40-40h215.7V40c0-21.7 18.3-40 40-40H646c21 0 39.6 17 43.4 39.6V101.9h215.7c21.7 0 40 18.3 40 40v536.3c0 21.7-18.3 40-40 40H689.5v41.6h94.1c21.7 0 40 18.3 40 40V984c0 21.7-18.3 40-40 40H243.9z m533.7-39.1V805.8h-134v-84.1H380.4v84.1h-134v179.1h531.2zM159.8 147.8c-19 0-35 16-35 35v464.8c0 19 16 35 35 35h704.5c19 0 35-16 35-35V182.8c0-19-16-35-35-35H159.8z m483.8-42.4V42.5H380.4v62.9h263.2z" p-id="3532"></path></svg>