<?xml version="1.0" standalone="no"?><!DOCTYPE svg PUBLIC "-//W3C//DTD SVG 1.1//EN" "http://www.w3.org/Graphics/SVG/1.1/DTD/svg11.dtd"><svg t="1776311073856" class="icon" viewBox="0 0 1024 1024" version="1.1" xmlns="http://www.w3.org/2000/svg" p-id="16398" xmlns:xlink="http://www.w3.org/1999/xlink" width="200" height="200"><path d="M919.353 666.773c-2.922-7.91-31.01-11.415-46.342-8.982-66.268 10.504-132.046 24.124-198.05 36.313-124.456 22.987-248.363 21.36-370.998-11.175-85.47-22.688-170.314-47.73-255.743-70.586-11.358-3.034-24.522 0.648-36.845 1.223-0.583 3.526-1.163 7.05-1.746 10.584 11.616 9.067 22.455 19.44 35.015 26.923 22.077 13.138 45.102 24.698 67.909 36.585 127.962 66.724 263.355 102.372 408.43 96.738 28.185-1.1 56.331-3.372 84.475-5.39 99.3-7.08 192.656-35.915 282.089-78.324 14.902-7.073 40.149-11.368 31.806-33.909z" fill="#F99B33" p-id="16399"></path><path d="M980.48 583.062c-51.523 4.016-102.398 17.188-153.19 28.154-5.062 1.096-7.603 13.86-11.312 21.197 6.521 3.139 13.035 8.9 19.577 8.93 20.348 0.13 40.706-1.932 55.134-2.786 10.39 0 14.843-0.041 19.29 0.01 37.338 0.483 42.29 8.547 26.397 42.807-7.455 16.053-15.75 31.817-21.684 48.422-2.61 7.292-0.253 16.36-0.155 24.617 8.139-0.97 17.173-0.062 24.18-3.4 8.517-4.06 17.708-10.249 22.452-18.044 19.128-31.461 39.174-62.788 54.03-96.305 13.293-29.988-1.896-56.159-34.719-53.602zM154.725 234.295c-36.63 0-65.49 6.105-86.58 19.425-24.975 14.43-40.515 37.74-46.62 69.375l62.715 4.995c3.33-14.985 11.655-26.085 23.865-33.3 10.545-6.66 24.42-9.435 42.18-9.435 41.07 0 61.605 18.315 61.605 56.055v11.1l-62.715 1.665c-42.18 1.11-74.925 9.99-98.235 26.64-25.53 17.205-37.74 42.18-37.74 74.37 0 23.865 8.88 43.29 26.64 58.83C57.045 529 80.355 536.77 110.325 536.77c24.975 0 46.62-4.44 64.935-12.765 16.095-7.77 29.97-18.315 41.07-32.745V529h58.83V345.85c0-34.965-8.88-61.605-26.64-79.92-19.98-21.09-51.615-31.635-93.795-31.635zM211.89 398.02v14.43c0 22.2-8.88 40.515-25.53 54.945-16.65 13.875-37.185 21.09-61.605 21.09-13.875 0-24.975-3.885-33.855-10.545-8.88-6.66-12.765-14.985-12.765-24.975 0-34.41 24.975-52.17 75.48-53.28l58.275-1.665zM311.235 242.065L407.805 529h58.83l57.72-209.79L581.52 529h58.83l96.57-286.935h-69.93l-57.165 212.01-56.61-212.01H494.94l-56.61 212.01-57.165-212.01zM881.22 234.295c-35.52 0-63.825 7.215-85.47 22.755-22.2 14.43-32.745 34.965-32.745 61.605 0 24.975 11.1 44.4 33.3 58.275 13.875 8.88 37.74 17.205 71.595 24.975 28.86 6.66 47.73 11.655 56.61 16.095 16.65 7.77 24.975 18.315 24.975 31.635 0 23.31-22.2 35.52-66.6 35.52-21.09 0-36.075-3.885-45.51-10.545-9.435-7.77-16.095-20.535-19.425-38.85h-61.605c6.105 67.155 48.84 101.01 128.76 101.01 86.025 0 129.315-30.525 129.315-91.575 0-25.53-11.655-46.065-34.41-60.495-15.54-10.545-39.96-19.425-72.15-27.195-28.86-7.215-47.73-12.765-57.165-16.65-15.54-6.66-22.755-14.985-22.755-23.865 0-11.1 4.44-18.87 14.43-23.865 8.325-4.995 21.09-7.215 37.74-7.215 19.425 0 33.855 2.775 43.29 8.88 8.88 5.55 15.54 16.095 19.98 30.525h61.605c-6.66-61.05-48.285-91.02-123.765-91.02z" fill="#F99B33" p-id="16400"></path></svg>