<?xml version="1.0" standalone="no"?><!DOCTYPE svg PUBLIC "-//W3C//DTD SVG 1.1//EN" "http://www.w3.org/Graphics/SVG/1.1/DTD/svg11.dtd"><svg t="1776311090084" class="icon" viewBox="0 0 1024 1024" version="1.1" xmlns="http://www.w3.org/2000/svg" p-id="17417" xmlns:xlink="http://www.w3.org/1999/xlink" width="200" height="200"><path d="M512 379.757714c-228.937143 0-415.890286-66.56-415.890286-171.593143S283.062857 36.571429 512 36.571429s415.890286 66.56 415.890286 171.593142S740.937143 379.757714 512 379.757714z m0-73.142857c190.025143 0 342.747429-54.345143 342.747429-98.450286 0-44.105143-152.722286-98.450286-342.747429-98.450285s-342.747429 54.345143-342.747429 98.450285c0 44.105143 152.722286 98.450286 342.747429 98.450286zM96.109714 410.697143h73.142857c0 44.105143 152.722286 98.523429 342.747429 98.523428s342.747429-54.418286 342.747429-98.523428h73.142857c0 105.106286-186.953143 171.666286-415.890286 171.666286S96.109714 515.803429 96.109714 410.697143zM96.109714 613.302857h73.142857c0 44.105143 152.722286 98.450286 342.747429 98.450286s342.747429-54.345143 342.747429-98.450286h73.142857c0 105.033143-186.953143 171.593143-415.890286 171.593143S96.109714 718.262857 96.109714 613.302857zM96.109714 815.835429h73.142857c0 44.105143 152.722286 98.450286 342.747429 98.450285s342.747429-54.345143 342.747429-98.450285h73.142857c0 105.033143-186.953143 171.593143-415.890286 171.593142S96.109714 920.868571 96.109714 815.835429z" fill="#2E9EFF" p-id="17418"></path><path d="M96.109714 171.593143h73.142857v680.813714h-73.142857zM854.747429 171.593143h73.142857v680.813714h-73.142857z" fill="#2E9EFF" p-id="17419"></path></svg>