<?xml version="1.0" standalone="no"?><!DOCTYPE svg PUBLIC "-//W3C//DTD SVG 1.1//EN" "http://www.w3.org/Graphics/SVG/1.1/DTD/svg11.dtd"><svg t="1776310916413" class="icon" viewBox="0 0 1024 1024" version="1.1" xmlns="http://www.w3.org/2000/svg" p-id="10795" xmlns:xlink="http://www.w3.org/1999/xlink" width="200" height="200"><path d="M170.666667 8.533333h682.666666c55.569067 0 95.6928 13.892267 121.9584 40.174934C1001.5744 74.990933 1015.466667 115.0976 1015.466667 170.666667v682.666666c0 55.569067-13.892267 95.6928-40.174934 121.9584-26.282667 26.282667-66.389333 40.174933-121.9584 40.174934H170.666667c-55.569067 0-95.6928-13.892267-121.9584-40.174934C22.4256 949.009067 8.533333 908.9024 8.533333 853.333333V170.666667c0-55.569067 13.892267-95.6928 40.174934-121.9584C74.990933 22.4256 115.0976 8.533333 170.666667 8.533333z" fill="#FFFFFF" p-id="10796"></path><path d="M849.0496 448.426667c17.629867 1.058133 34.816 4.3008 50.909867 11.861333 12.5952 5.922133 23.620267 13.943467 30.685866 26.282667 12.6464 22.101333 7.3216 49.220267-12.5952 65.399466-16.4864 13.448533-35.976533 19.234133-56.576 21.9648-8.192 1.058133-16.554667 1.194667-24.849066 1.792-24.576-0.221867-48.366933-3.822933-70.0416-16.0768-18.176-10.24-30.088533-25.053867-30.464-46.882133-0.392533-23.3472 12.3392-38.980267 31.709866-49.493333 25.326933-13.7216 52.906667-16.5376 81.220267-14.830934v-0.017066zM85.333333 459.8784c7.099733-10.990933 11.946667-12.288 23.790934-5.9904 29.832533 15.872 59.682133 31.744 89.412266 47.8208 4.539733 2.474667 8.157867 2.6112 12.8 0.068267a6671.872 6671.872 0 0 1 89.856-48.145067c3.822933-2.013867 8.738133-3.037867 13.056-2.730667 5.751467 0.426667 9.5232 5.290667 9.557334 11.1616 0.085333 36.232533 0 72.482133-0.034134 108.714667 0 0.512-0.256 1.024-0.512 1.979733h-46.1312c-0.136533-2.133333-0.341333-4.1472-0.341333-6.126933-0.034133-14.062933 0-28.091733 0-42.154667 0-9.489067-2.440533-10.9568-11.025067-6.570666-16.759467 8.6016-33.621333 17.032533-50.2272 25.924266-8.465067 4.5568-16.1792 4.5568-24.576-0.221866-15.581867-8.840533-31.453867-17.169067-47.240533-25.6512-7.901867-4.266667-10.871467-2.56-10.871467 6.314666l-0.034133 42.154667v6.7072H85.333333v-113.2544z m383.300267-7.355733c39.355733 18.346667 78.711467 36.727467 118.033067 55.108266 1.348267 0.631467 2.679467 1.28 4.0448 1.809067 6.144 2.423467 8.823467 0.682667 8.840533-5.853867 0.034133-15.701333 0-31.4368 0-47.1552v-5.888h48.059733v7.1168c0 33.297067 0.068267 66.6112 0.0512 99.925334 0 13.141333-9.216 19.029333-21.265066 13.448533a76185.924267 76185.924267 0 0 1-120.081067-56.046933c-8.618667-4.061867-11.52-2.3552-11.52 7.0656v50.7392H447.488v-5.922134l0.034133-101.0176c0-13.380267 8.874667-19.029333 21.128534-13.329066z m-59.6992-2.133334v122.402134h-46.1312v-122.368h46.1312v-0.034134z m297.591467 0.085334v122.3168H686.250667v-122.3168h20.2752z m134.877866 13.499733l-5.905066 0.0512a119.569067 119.569067 0 0 0-40.1408 5.717333c-13.8752 4.471467-25.770667 11.690667-32.768 24.746667-10.376533 19.575467-1.4848 42.8032 20.0704 54.101333 14.2336 7.424 29.5424 10.2912 45.397333 10.922667 22.016 0.853333 43.6224-0.682667 63.4368-11.605333 13.568-7.509333 22.664533-18.141867 23.296-34.474667 0.750933-18.210133-8.977067-29.952-23.8592-38.058667-13.585067-7.424-28.2112-10.496-43.690667-11.229866l-5.8368-0.170667z" fill="#B8294A" p-id="10797"></path></svg>