<?xml version="1.0" standalone="no"?><!DOCTYPE svg PUBLIC "-//W3C//DTD SVG 1.1//EN" "http://www.w3.org/Graphics/SVG/1.1/DTD/svg11.dtd"><svg t="1776309886779" class="icon" viewBox="0 0 1024 1024" version="1.1" xmlns="http://www.w3.org/2000/svg" p-id="9762" xmlns:xlink="http://www.w3.org/1999/xlink" width="200" height="200"><path d="M876.64 1012.672h-177.376l-211.072-422.08h-189.76v422.08H145.792V10.304h389.12c61.44 0 115.84 12.48 163.296 37.472 47.456 24.96 83.872 59.584 109.312 103.808 25.44 44.224 38.176 94.784 38.176 151.616 0 68.736-18.464 126.144-55.36 172.192-36.896 46.08-84.896 77.344-144 93.856l230.304 443.424zM693.76 304.576c0-49.056-15.488-87.68-46.4-115.84-30.944-28.192-72.32-42.304-124.096-42.304H298.432v314.208h224.832c51.328 0 92.576-13.984 123.744-41.952 31.168-27.968 46.72-66.016 46.72-114.112z" fill="#0099E8" p-id="9763"></path></svg>